<?xml version="1.0" encoding="UTF-8" standalone="no"?>
<svg
   xmlns:dc="http://purl.org/dc/elements/1.1/"
   xmlns:cc="http://creativecommons.org/ns#"
   xmlns:rdf="http://www.w3.org/1999/02/22-rdf-syntax-ns#"
   xmlns:svg="http://www.w3.org/2000/svg"
   xmlns="http://www.w3.org/2000/svg"
   xmlns:xlink="http://www.w3.org/1999/xlink"
   id="svg8"
   version="1.1"
   viewBox="0 0 512 512"
   height="512"
   width="512">
  <defs
     id="defs2">
    <linearGradient
       id="linearGradient4536-5-3-5-6-2-9-1-2">
      <stop
         style="stop-color:#000000;stop-opacity:1;"
         offset="0"
         id="stop4601" />
      <stop
         style="stop-color:#000000;stop-opacity:0;"
         offset="1"
         id="stop4603" />
    </linearGradient>
    <linearGradient
       y2="417.53333"
       x2="480"
       y1="417.53333"
       x1="32"
       gradientUnits="userSpaceOnUse"
       id="linearGradient4559"
       xlink:href="#linearGradient4536-5-3-5-6-2-9-1-2" />
  </defs>
  <metadata
     id="metadata5">
    <rdf:RDF>
      <cc:Work
         rdf:about="">
        <dc:format>image/svg+xml</dc:format>
        <dc:type
           rdf:resource="http://purl.org/dc/dcmitype/StillImage" />
        <dc:title></dc:title>
      </cc:Work>
    </rdf:RDF>
  </metadata>
  <g
     transform="translate(0,-161.53331)"
     id="layer1">
    <circle
       r="224"
       cy="417.53333"
       cx="256"
       id="path969"
       style="fill:#ffffff;fill-opacity:0.969697;stroke:#800080;stroke-opacity:1;stroke-width:24;stroke-miterlimit:4;stroke-dasharray:none" />
    <g
       id="text1061"
       style="font-style:normal;font-weight:normal;font-size:40px;line-height:1.25;font-family:sans-serif;letter-spacing:0px;word-spacing:0px;fill:#800080;fill-opacity:1;stroke:none"
       aria-label="tʃ">
      <path
         id="path1101"
         style="font-size:333.33337402px;fill:#800080"
         d="m 187.96614,291.44341 v 51.75782 h 61.68621 v 23.27474 h -61.68621 v 98.95835 q 0,22.29818 6.02214,28.64584 6.18489,6.34765 24.90234,6.34765 h 30.76173 v 25.06511 h -30.76173 q -34.66797,0 -47.85156,-12.85807 -13.1836,-13.02084 -13.1836,-47.20053 V 366.47597 H 135.8828 v -23.27474 h 21.97266 v -51.75782 z" />
      <path
         id="path1103"
         style="font-size:333.33337402px;fill:#800080"
         d="M 288.71485,528.74813 V 330.50592 q 0,-30.4362 14.16016,-44.27084 14.16016,-13.9974 44.92188,-13.9974 h 28.32031 v 24.90235 h -28.64583 q -16.11329,0 -22.46094,6.51041 -6.1849,6.51042 -6.1849,23.43751 v 201.66018 q 0,34.83073 -13.34635,50.45573 -13.1836,15.62501 -42.64324,15.62501 h -11.39323 v -25.39063 h 7.97526 q 17.08985,0 23.11198,-7.97526 6.1849,-7.8125 6.1849,-32.71485 z" />
    </g>
  </g>
</svg>
