<svg xmlns="http://www.w3.org/2000/svg" version="1.1" width="64" height="64" viewBox="0 0 64 64"><circle cx="32" cy="32" r="31" fill="#808"/><path fill="#fff" d="M22.358 13.79v7.701h9.179v3.463h-9.179V39.68q0 3.318.896 4.263.92.944 3.706.944h4.577v3.73H26.96q-5.159 0-7.12-1.913-1.962-1.938-1.962-7.024V24.954h-3.27v-3.463h3.27v-7.702zM37.35 49.1V19.602q0-4.529 2.106-6.588 2.108-2.082 6.685-2.082h4.214v3.705h-4.263q-2.397 0-3.342.969-.92.969-.92 3.487V49.1q0 5.183-1.986 7.508-1.962 2.325-6.345 2.325h-1.696v-3.778h1.187q2.543 0 3.44-1.187.92-1.162.92-4.868z"/></svg>
